<?xml version='1.0' encoding='UTF-8'?>
<svg xmlns="http://www.w3.org/2000/svg" height="340" id="svg" style="max-width: 100%; height: auto; font: 10px sans-serif;" viewBox="0,20,1100,300" width="900" tag_name="svg">
  <rect height="40" width="800" x="150" y="40" fill="hsl(107, 45%, 85%)" id="rect_11" tag_name="svg/rect_11"/>
  <rect height="40" width="600" x="150" y="40" fill="hsl(26, 92%, 72%)" id="rect_10" tag_name="svg/rect_10"/>
  <rect height="40" width="400" x="150" y="40" fill="hsl(10, 96%, 61%)" id="rect_9" tag_name="svg/rect_9"/>
  <rect height="40" width="800" x="150" y="140" fill="hsl(107, 45%, 85%)" id="rect_8" tag_name="svg/rect_8"/>
  <rect height="40" width="600" x="150" y="140" fill="hsl(26, 92%, 72%)" id="rect_7" tag_name="svg/rect_7"/>
  <rect height="40" width="400" x="150" y="140" fill="hsl(10, 96%, 61%)" id="rect_6" tag_name="svg/rect_6"/>
  <rect height="40" width="800" x="150" y="240" fill="hsl(107, 45%, 85%)" id="rect_5" tag_name="svg/rect_5"/>
  <rect height="40" width="600" x="150" y="240" fill="hsl(26, 92%, 72%)" id="rect_4" tag_name="svg/rect_4"/>
  <rect height="40" width="400" x="150" y="240" fill="hsl(10, 96%, 61%)" id="rect_3" tag_name="svg/rect_3"/>
  <rect height="20" width="400" x="150" y="50" fill="red" id="rect_2" tag_name="svg/rect_2"/>
  <rect height="20" width="600" x="150" y="150" fill="red" id="rect_1" tag_name="svg/rect_1"/>
  <rect height="20" width="500" x="150" y="250" fill="red" id="rect" tag_name="svg/rect"/>
  <line x1="500" x2="500" y1="30" y2="90" stroke="hsl(0, 90%, 24%)" stroke-width="2" id="line_2" tag_name="svg/line_2"/>
  <line x1="800" x2="800" y1="130" y2="190" stroke="hsl(0, 90%, 24%)" stroke-width="2" id="line_1" tag_name="svg/line_1"/>
  <line x1="700" x2="700" y1="230" y2="290" stroke="hsl(0, 90%, 24%)" stroke-width="2" id="line" tag_name="svg/line"/>
  <text font-size="16" text-anchor="end" x="120" y="70" id="text_8" tag_name="svg/text_8">xx</text>
  <text font-size="16" text-anchor="end" x="120" y="170" id="text_7" tag_name="svg/text_7">xx</text>
  <text font-size="16" text-anchor="end" x="120" y="270" id="text_6" tag_name="svg/text_6">xxx</text>
  <text font-size="12" x="150" y="350" id="text_5" tag_name="svg/text_5">x</text>
  <text font-size="12" x="350" y="350" id="text_4" tag_name="svg/text_4">xxxx</text>
  <text font-size="12" x="550" y="350" id="text_3" tag_name="svg/text_3">xxxx</text>
  <text font-size="12" x="750" y="350" id="text_2" tag_name="svg/text_2">xxxx</text>
  <text font-size="12" x="950" y="350" id="text_1" tag_name="svg/text_1">xxxx</text>
  <text font-size="12" x="1150" y="350" id="text" tag_name="svg/text">xxxxx</text>
</svg>