<?xml version='1.0' encoding='UTF-8'?>
<svg xmlns="http://www.w3.org/2000/svg" width="900" height="340" viewBox="-440,-170,880,340" style="max-width: 100%; height: auto; font: 10px sans-serif;" id="svg" tag_name="svg">
  <rect x="-400" y="-160" width="80" height="80" id="rect_39" fill="hsl(190, 66%, 54%)" stroke="black" stroke-width="1" tag_name="svg/rect_39"/>
  <rect x="-320" y="-160" width="80" height="80" id="rect_38" fill="hsl(71, 63%, 61%)" stroke="black" stroke-width="1" tag_name="svg/rect_38"/>
  <rect x="-240" y="-160" width="80" height="80" id="rect_37" fill="hsl(330, 100%, 88%)" stroke="black" stroke-width="1" tag_name="svg/rect_37"/>
  <rect x="-160" y="-160" width="80" height="80" id="rect_36" fill="hsl(329, 31%, 78%)" stroke="black" stroke-width="1" tag_name="svg/rect_36"/>
  <rect x="-80" y="-160" width="80" height="80" id="rect_35" fill="hsl(89, 96%, 68%)" stroke="black" stroke-width="1" tag_name="svg/rect_35"/>
  <rect x="0" y="-160" width="80" height="80" id="rect_34" fill="hsl(331, 95%, 56%)" stroke="black" stroke-width="1" tag_name="svg/rect_34"/>
  <rect x="80" y="-160" width="80" height="80" id="rect_33" fill="hsl(207, 61%, 62%)" stroke="black" stroke-width="1" tag_name="svg/rect_33"/>
  <rect x="160" y="-160" width="80" height="80" id="rect_32" fill="hsl(71, 63%, 61%)" stroke="black" stroke-width="1" tag_name="svg/rect_32"/>
  <rect x="240" y="-160" width="80" height="80" id="rect_31" fill="hsl(330, 100%, 88%)" stroke="black" stroke-width="1" tag_name="svg/rect_31"/>
  <rect x="320" y="-160" width="80" height="80" id="rect_30" fill="hsl(329, 31%, 78%)" stroke="black" stroke-width="1" tag_name="svg/rect_30"/>
  <rect x="-400" y="-80" width="80" height="80" id="rect_29" fill="hsl(89, 96%, 68%)" stroke="black" stroke-width="1" tag_name="svg/rect_29"/>
  <rect x="-320" y="-80" width="80" height="80" id="rect_28" fill="hsl(331, 95%, 56%)" stroke="black" stroke-width="1" tag_name="svg/rect_28"/>
  <rect x="-240" y="-80" width="80" height="80" id="rect_27" fill="hsl(207, 61%, 62%)" stroke="black" stroke-width="1" tag_name="svg/rect_27"/>
  <rect x="-160" y="-80" width="80" height="80" id="rect_26" fill="hsl(71, 63%, 61%)" stroke="black" stroke-width="1" tag_name="svg/rect_26"/>
  <rect x="-80" y="-80" width="80" height="80" id="rect_25" fill="hsl(330, 100%, 88%)" stroke="black" stroke-width="1" tag_name="svg/rect_25"/>
  <rect x="0" y="-80" width="80" height="80" id="rect_24" fill="hsl(329, 31%, 78%)" stroke="black" stroke-width="1" tag_name="svg/rect_24"/>
  <rect x="80" y="-80" width="80" height="80" id="rect_23" fill="hsl(89, 96%, 68%)" stroke="black" stroke-width="1" tag_name="svg/rect_23"/>
  <rect x="160" y="-80" width="80" height="80" id="rect_22" fill="hsl(331, 95%, 56%)" stroke="black" stroke-width="1" tag_name="svg/rect_22"/>
  <rect x="240" y="-80" width="80" height="80" id="rect_21" fill="hsl(207, 61%, 62%)" stroke="black" stroke-width="1" tag_name="svg/rect_21"/>
  <rect x="320" y="-80" width="80" height="80" id="rect_20" fill="hsl(71, 63%, 61%)" stroke="black" stroke-width="1" tag_name="svg/rect_20"/>
  <rect x="-400" y="0" width="80" height="80" id="rect_19" fill="hsl(330, 100%, 88%)" stroke="black" stroke-width="1" tag_name="svg/rect_19"/>
  <rect x="-320" y="0" width="80" height="80" id="rect_18" fill="hsl(329, 31%, 78%)" stroke="black" stroke-width="1" tag_name="svg/rect_18"/>
  <rect x="-240" y="0" width="80" height="80" id="rect_17" fill="hsl(89, 96%, 68%)" stroke="black" stroke-width="1" tag_name="svg/rect_17"/>
  <rect x="-160" y="0" width="80" height="80" id="rect_16" fill="hsl(331, 95%, 56%)" stroke="black" stroke-width="1" tag_name="svg/rect_16"/>
  <rect x="-80" y="0" width="80" height="80" id="rect_15" fill="hsl(207, 61%, 62%)" stroke="black" stroke-width="1" tag_name="svg/rect_15"/>
  <rect x="0" y="0" width="80" height="80" id="rect_14" fill="hsl(71, 63%, 61%)" stroke="black" stroke-width="1" tag_name="svg/rect_14"/>
  <rect x="80" y="0" width="80" height="80" id="rect_13" fill="hsl(330, 100%, 88%)" stroke="black" stroke-width="1" tag_name="svg/rect_13"/>
  <rect x="160" y="0" width="80" height="80" id="rect_12" fill="hsl(329, 31%, 78%)" stroke="black" stroke-width="1" tag_name="svg/rect_12"/>
  <rect x="240" y="0" width="80" height="80" id="rect_11" fill="hsl(89, 96%, 68%)" stroke="black" stroke-width="1" tag_name="svg/rect_11"/>
  <rect x="320" y="0" width="80" height="80" id="rect_10" fill="hsl(331, 95%, 56%)" stroke="black" stroke-width="1" tag_name="svg/rect_10"/>
  <rect x="-400" y="80" width="80" height="80" id="rect_9" fill="hsl(207, 61%, 62%)" stroke="black" stroke-width="1" tag_name="svg/rect_9"/>
  <rect x="-320" y="80" width="80" height="80" id="rect_8" fill="hsl(71, 63%, 61%)" stroke="black" stroke-width="1" tag_name="svg/rect_8"/>
  <rect x="-240" y="80" width="80" height="80" id="rect_7" fill="hsl(330, 100%, 88%)" stroke="black" stroke-width="1" tag_name="svg/rect_7"/>
  <rect x="-160" y="80" width="80" height="80" id="rect_6" fill="hsl(329, 31%, 78%)" stroke="black" stroke-width="1" tag_name="svg/rect_6"/>
  <rect x="-80" y="80" width="80" height="80" id="rect_5" fill="hsl(89, 96%, 68%)" stroke="black" stroke-width="1" tag_name="svg/rect_5"/>
  <rect x="0" y="80" width="80" height="80" id="rect_4" fill="hsl(331, 95%, 56%)" stroke="black" stroke-width="1" tag_name="svg/rect_4"/>
  <rect x="80" y="80" width="80" height="80" id="rect_3" fill="hsl(207, 61%, 62%)" stroke="black" stroke-width="1" tag_name="svg/rect_3"/>
  <rect x="160" y="80" width="80" height="80" id="rect_2" fill="hsl(71, 63%, 61%)" stroke="black" stroke-width="1" tag_name="svg/rect_2"/>
  <rect x="240" y="80" width="80" height="80" id="rect_1" fill="hsl(330, 100%, 88%)" stroke="black" stroke-width="1" tag_name="svg/rect_1"/>
  <rect x="320" y="80" width="80" height="80" id="rect" fill="hsl(329, 31%, 78%)" stroke="black" stroke-width="1" tag_name="svg/rect"/>
</svg>