<?xml version='1.0' encoding='UTF-8'?>
<svg xmlns="http://www.w3.org/2000/svg" height="340" style="max-width: 100%; height: auto; font: 10px sans-serif;" viewBox="-70,-30,880,340" width="900" id="svg" tag_name="svg">
  <g id="g_1" tag_name="svg/g_1">
    <line x1="43.2" x2="43.2" y1="285" y2="29" fill="none" stroke="hsl(0, 0%, 40%)" id="line_22" tag_name="svg/g_1/line_22"/>
    <g id="g_3" tag_name="svg/g_1/g_3">
      <g id="g_4" tag_name="svg/g_1/g_3/g_4">
        <line x1="36.5" x2="42.9" y1="221" y2="221" fill="none" stroke="hsl(0, 0%, 40%)" id="line_21" tag_name="svg/g_1/g_3/g_4/line_21"/>
        <line x1="36.5" x2="42.9" y1="157" y2="157" fill="none" stroke="hsl(0, 0%, 40%)" id="line_20" tag_name="svg/g_1/g_3/g_4/line_20"/>
        <line x1="36.5" x2="42.9" y1="93" y2="93" fill="none" stroke="hsl(0, 0%, 40%)" id="line_19" tag_name="svg/g_1/g_3/g_4/line_19"/>
        <line x1="36.5" x2="42.9" y1="29" y2="29" fill="none" stroke="hsl(0, 0%, 40%)" id="line_18" tag_name="svg/g_1/g_3/g_4/line_18"/>
      </g>
    </g>
    <g id="g_2" tag_name="svg/g_1/g_2">
      <line x1="42.7" x2="701.5" y1="285" y2="285" fill="none" stroke="hsl(0, 0%, 40%)" id="line_17" tag_name="svg/g_1/g_2/line_17"/>
    </g>
    <line x1="80" x2="80" y1="285" y2="292.5" fill="none" stroke="hsl(0, 0%, 40%)" id="line_16" tag_name="svg/g_1/line_16"/>
    <line x1="116.8" x2="116.8" y1="285" y2="292.5" fill="none" stroke="hsl(0, 0%, 40%)" id="line_15" tag_name="svg/g_1/line_15"/>
    <line x1="153.6" x2="153.6" y1="285" y2="292.5" fill="none" stroke="hsl(0, 0%, 40%)" id="line_14" tag_name="svg/g_1/line_14"/>
    <line x1="190.4" x2="190.4" y1="285" y2="292.5" fill="none" stroke="hsl(0, 0%, 40%)" id="line_13" tag_name="svg/g_1/line_13"/>
    <line x1="227.2" x2="227.2" y1="285" y2="292.5" fill="none" stroke="hsl(0, 0%, 40%)" id="line_12" tag_name="svg/g_1/line_12"/>
    <line x1="264" x2="264" y1="285" y2="292.5" fill="none" stroke="hsl(0, 0%, 40%)" id="line_11" tag_name="svg/g_1/line_11"/>
    <line x1="300.8" x2="300.8" y1="285" y2="292.5" fill="none" stroke="hsl(0, 0%, 40%)" id="line_10" tag_name="svg/g_1/line_10"/>
    <line x1="337.6" x2="337.6" y1="285" y2="292.5" fill="none" stroke="hsl(0, 0%, 40%)" id="line_9" tag_name="svg/g_1/line_9"/>
    <line x1="374.4" x2="374.4" y1="285" y2="292.5" fill="none" stroke="hsl(0, 0%, 40%)" id="line_8" tag_name="svg/g_1/line_8"/>
    <line x1="411.1" x2="411.1" y1="285" y2="292.5" fill="none" stroke="hsl(0, 0%, 40%)" id="line_7" tag_name="svg/g_1/line_7"/>
    <line x1="447.9" x2="447.9" y1="285" y2="292.5" fill="none" stroke="hsl(0, 0%, 40%)" id="line_6" tag_name="svg/g_1/line_6"/>
    <line x1="484.7" x2="484.7" y1="285" y2="292.5" fill="none" stroke="hsl(0, 0%, 40%)" id="line_5" tag_name="svg/g_1/line_5"/>
    <line x1="521.5" x2="521.5" y1="285" y2="292.5" fill="none" stroke="hsl(0, 0%, 40%)" id="line_4" tag_name="svg/g_1/line_4"/>
    <line x1="558.3" x2="558.3" y1="285" y2="292.5" fill="none" stroke="hsl(0, 0%, 40%)" id="line_3" tag_name="svg/g_1/line_3"/>
    <line x1="595.1" x2="595.1" y1="285" y2="292.5" fill="none" stroke="hsl(0, 0%, 40%)" id="line_2" tag_name="svg/g_1/line_2"/>
    <line x1="631.9" x2="631.9" y1="285" y2="292.5" fill="none" stroke="hsl(0, 0%, 40%)" id="line_1" tag_name="svg/g_1/line_1"/>
    <line x1="668.7" x2="668.7" y1="285" y2="292.5" fill="none" stroke="hsl(0, 0%, 40%)" id="line" tag_name="svg/g_1/line"/>
  </g>
  <g id="g" tag_name="svg/g">
    <rect height="11.2" width="34" x="63.2" y="273.2" fill="hsl(0, 68%, 62%)" id="rect_16" tag_name="svg/g/rect_16"/>
    <rect height="19.7" width="34" x="99.7" y="264.8" fill="hsl(0, 68%, 62%)" id="rect_15" tag_name="svg/g/rect_15"/>
    <rect height="16.9" width="34" x="136.4" y="267.6" fill="hsl(0, 68%, 62%)" id="rect_14" tag_name="svg/g/rect_14"/>
    <rect height="37" width="34" x="173.2" y="247.5" fill="hsl(0, 68%, 62%)" id="rect_13" tag_name="svg/g/rect_13"/>
    <rect height="84.4" width="34" x="210.4" y="200.1" fill="hsl(0, 68%, 62%)" id="rect_12" tag_name="svg/g/rect_12"/>
    <rect height="113.4" width="34" x="246.7" y="171" fill="hsl(0, 68%, 62%)" id="rect_11" tag_name="svg/g/rect_11"/>
    <rect height="105.9" width="34" x="283.8" y="178.5" fill="hsl(0, 68%, 62%)" id="rect_10" tag_name="svg/g/rect_10"/>
    <rect height="219.4" width="34" x="320.5" y="65.1" fill="hsl(0, 68%, 62%)" id="rect_9" tag_name="svg/g/rect_9"/>
    <rect height="253.5" width="34" x="357.3" y="31" fill="hsl(0, 68%, 62%)" id="rect_8" tag_name="svg/g/rect_8"/>
    <rect height="206.3" width="34" x="394" y="78.2" fill="hsl(0, 68%, 62%)" id="rect_7" tag_name="svg/g/rect_7"/>
    <rect height="195.9" width="34" x="430.7" y="88.5" fill="hsl(0, 68%, 62%)" id="rect_6" tag_name="svg/g/rect_6"/>
    <rect height="135" width="34" x="467.7" y="149.5" fill="hsl(0, 68%, 62%)" id="rect_5" tag_name="svg/g/rect_5"/>
    <rect height="75" width="34" x="504.2" y="209.5" fill="hsl(0, 68%, 62%)" id="rect_4" tag_name="svg/g/rect_4"/>
    <rect height="31.9" width="34" x="541.2" y="252.6" fill="hsl(0, 68%, 62%)" id="rect_3" tag_name="svg/g/rect_3"/>
    <rect height="21.6" width="34" x="578" y="262.9" fill="hsl(0, 68%, 62%)" id="rect_2" tag_name="svg/g/rect_2"/>
    <rect height="23.4" width="34" x="614.7" y="261" fill="hsl(0, 68%, 62%)" id="rect_1" tag_name="svg/g/rect_1"/>
    <rect height="15" width="34" x="651.4" y="269.5" fill="hsl(0, 68%, 62%)" id="rect" tag_name="svg/g/rect"/>
  </g>
</svg>